<svg width="386" height="188" xmlns="http://www.w3.org/2000/svg">

 <title/>
 <metadata id="imagebot_7">image/svg+xmlForward/Back2016-01-11Algot RunemanAlgot Runemanruneman.orgforward-back.svgen-USForward and Back Buttons</metadata>
 <g id="imagebot_2" label="Layer 1">
  <title>Layer 1</title>
  <g transform="translate(0 -2) matrix(1 0 0 1 99 2)" id="imagebot_8">
   <ellipse label="Layer 1" fill="#000080" stroke-width="3" stroke-linecap="round" stroke-miterlimit="4" transform="translate(-1 0) matrix(-1 0 0 1 355 -294.862)" id="imagebot_4" cx="256.8913" cy="388.61221" rx="95.1087" ry="93.75"/>
   <path transform="translate(-0.000004 -0.000210488) matrix(1 0 0 1 352 -294.862)" label="Layer 1" fill="#ffffff" fill-rule="evenodd" stroke-width="1px" d="M-167.21739,419.67076C-187.59783,393.85555 -195.79264,383.51424 -227.67935,373.47511C-261.69796,362.76479 -281.30457,378.24987 -275.91304,327.27946L-346.56522,397.93163L-275.91304,446.84468C-280.76755,408.60778 -248.39946,406.76316 -248.39946,406.76316C-223.28633,401.69313 -208.61957,403.29033 -167.21739,419.67076z" id="imagebot_3"/>
  </g>
 </g>
</svg>